<?xml version="1.0" standalone="no"?>
<!DOCTYPE svg PUBLIC "-//W3C//DTD SVG 20010904//EN"
 "http://www.w3.org/TR/2001/REC-SVG-20010904/DTD/svg10.dtd">
<svg version="1.0" xmlns="http://www.w3.org/2000/svg"
 width="260.000000pt" height="260.000000pt" viewBox="0 0 260.000000 260.000000"
 preserveAspectRatio="xMidYMid meet">
<metadata>
Created by potrace 1.14, written by Peter Selinger 2001-2017
</metadata>
<g transform="translate(0.000000,260.000000) scale(0.100000,-0.100000)"
fill="#000000" stroke="none">
<path d="M1380 2297 c0 -37 66 -796 76 -864 l5 -43 147 1 147 0 -61 19 -61 20
-7 61 c-3 34 -6 82 -6 106 l0 44 63 -3 62 -3 5 -47 c3 -27 10 -52 15 -57 6 -4
40 -15 76 -24 63 -16 69 -15 135 3 38 11 70 20 71 20 3 0 11 56 17 118 l5 52
-228 0 -228 0 -7 31 c-3 17 -6 49 -6 70 l0 39 239 0 238 0 7 46 c12 93 38 84
-244 84 -192 0 -252 3 -255 13 -2 6 -5 36 -8 65 l-4 52 334 0 334 0 -5 -32
c-3 -18 -15 -145 -26 -283 -12 -137 -24 -275 -28 -305 l-7 -54 -132 -37 c-131
-37 -134 -37 -189 -22 -31 8 -58 13 -59 11 -2 -2 -5 -52 -7 -112 l-3 -109 59
-18 59 -18 216 60 c119 34 217 62 218 63 1 1 18 184 38 406 20 223 42 465 48
538 7 73 11 135 8 138 -2 2 -240 4 -528 4 l-523 0 0 -33z"/>
<path d="M150 2292 c0 -42 90 -1045 94 -1050 2 -1 99 -30 216 -62 l213 -59 80
22 79 21 -7 105 c-4 58 -9 108 -11 110 -3 3 -37 -3 -77 -12 l-72 -18 -130 39
-130 38 -6 46 c-4 25 -9 72 -10 104 l-4 59 65 0 65 0 5 -47 c3 -27 10 -52 15
-56 6 -5 38 -16 73 -26 65 -17 82 -15 179 15 34 11 33 8 47 137 l4 42 -229 0
-229 0 -4 23 c-3 12 -10 83 -16 157 -6 74 -13 154 -16 176 l-6 41 327 8 c195
4 331 3 336 -2 5 -5 6 -37 3 -71 l-7 -62 -253 0 -254 0 0 -24 c0 -13 3 -44 6
-70 l7 -46 238 6 239 7 0 -39 c0 -21 -7 -111 -15 -199 -8 -88 -15 -165 -15
-171 0 -7 -26 -19 -57 -27 l-58 -15 142 -1 142 -1 5 33 c7 43 76 835 76 870
l0 27 -525 0 -525 0 0 -28z"/>
</g>
</svg>
